<svg id="Layer_1" data-name="Layer 1" xmlns="http://www.w3.org/2000/svg" viewBox="0 0 33.9 33.8"><defs><style>.cls-1{fill:#fff;}</style></defs><title>icons</title><path class="cls-1" d="M12.9,15.5a1.4,1.4,0,0,0,1.3-1.9,1,1,0,0,0-.8-0.8l-1.2-.2H9.6v2.9h3.3Z"/><path class="cls-1" d="M22.9,15.4a2,2,0,0,0-1.9,2h4.2A2,2,0,0,0,22.9,15.4Z"/><path class="cls-1" d="M13.1,17.7H9.6v3.5h3.5a1.6,1.6,0,0,0,1.5-1.8A1.5,1.5,0,0,0,13.1,17.7Z"/><path class="cls-1" d="M17.2,0.1A16.8,16.8,0,1,0,34,16.9,16.8,16.8,0,0,0,17.2.1Zm3.2,10.8h5.3v1.3H20.4V10.9ZM14.3,23.3l-1.2.2H6.6V10.3H14a3.2,3.2,0,0,1,2.9,3.4,2.7,2.7,0,0,1-1.3,2.4l-0.3.2a3.1,3.1,0,0,1,2,2.9A3.8,3.8,0,0,1,14.3,23.3Zm8.3-2a2.7,2.7,0,0,0,1.5-.1,1.8,1.8,0,0,0,1-.8l0.2-.2h2.4a5.7,5.7,0,0,1-.3.8A4.2,4.2,0,0,1,24,23.4a5.6,5.6,0,0,1-3.2-.5,4,4,0,0,1-2.3-3.3,6.9,6.9,0,0,1,.3-3.3,4.1,4.1,0,0,1,3.5-2.8,5.4,5.4,0,0,1,2.6.2,4.1,4.1,0,0,1,2.8,3.4,18.6,18.6,0,0,1,.2,2H20.9A2.1,2.1,0,0,0,22.6,21.3Z"/></svg>