<svg id="Layer_1" data-name="Layer 1" xmlns="http://www.w3.org/2000/svg" viewBox="0 0 33.9 33.8"><defs><style>.cls-1{fill:#fff;}</style></defs><title>icons</title><path class="cls-1" d="M17,0.1A16.8,16.8,0,1,0,33.8,16.9,16.8,16.8,0,0,0,17,.1ZM8.7,24.4V24.1q0-5.2,0-10.5V13.4h3.6v0.2q0,5.3,0,10.7H8.7Zm3.7-13.5a1.9,1.9,0,0,1-1.7,1,1.9,1.9,0,0,1-1.8-.8,4.3,4.3,0,0,1-.3-0.8V9.8A2.1,2.1,0,0,1,9,8.7a2.3,2.3,0,0,1,3.1.2A1.8,1.8,0,0,1,12.4,10.9Zm13,13.5H21.8V24.1c0-1.9,0-3.8,0-5.7a4.5,4.5,0,0,0-.1-0.9,1.7,1.7,0,0,0-1.1-1.4A2,2,0,0,0,18,18c0,2.1,0,4.3,0,6.4H14.4c0-.1,0-0.3,0-0.4q0-5,0-9.9c0-.2,0-0.4,0-0.6H18v1.4h0l0.2-.3A3.5,3.5,0,0,1,21,13.2a4.1,4.1,0,0,1,2.8.7,4.1,4.1,0,0,1,1.5,2.6l0.2,1v6.9Z"/></svg>