<svg id="Layer_1" data-name="Layer 1" xmlns="http://www.w3.org/2000/svg" viewBox="0 0 138.3 26.2"><defs><style>.cls-1{fill:#fff;stroke:#fff;stroke-linejoin:round;stroke-width:0.25px;}.cls-2{fill:#29615e;}.cls-3{fill:#42aaaa;}.cls-4{fill:#4cc3c8;}.cls-5{fill:#307877;}</style></defs><title>logo3</title><path class="cls-1" d="M51.7,13.6h0l-3,7.4-3-7.4h0l-1.5,7.2H43.6l1.9-8.9,3.2,7.9,3.2-7.9,1.9,8.9H53.2Z" transform="translate(-2.4 -3.3)"/><path class="cls-1" d="M65.1,16.4A4.5,4.5,0,1,1,60.6,12,4.5,4.5,0,0,1,65.1,16.4Zm-8.4,0a3.9,3.9,0,1,0,3.9-3.9A4,4,0,0,0,56.7,16.4Z" transform="translate(-2.4 -3.3)"/><path class="cls-1" d="M76.2,21l-7.3-7.7v7.4H68.3V12l7.3,7.7V12.1h0.5V21Z" transform="translate(-2.4 -3.3)"/><path class="cls-1" d="M80.5,20.7H79.9V12.1h0.5v8.6Z" transform="translate(-2.4 -3.3)"/><path class="cls-1" d="M91.1,13.8a3.9,3.9,0,0,0-2.9-1.4,4,4,0,0,0-3.9,4,3.8,3.8,0,0,0,1.2,2.7,4.2,4.2,0,0,0,2.8,1.2A4.1,4.1,0,0,0,91.1,19v0.8A4.4,4.4,0,1,1,88.3,12a4.3,4.3,0,0,1,2.9,1.1v0.8Z" transform="translate(-2.4 -3.3)"/><path class="cls-1" d="M95.5,17.9l-1.2,2.8H93.8l3.6-8.9,3.6,8.9h-0.6l-1.2-2.8H95.5Zm1.9-4.7-1.7,4.2h3.4Z" transform="translate(-2.4 -3.3)"/><path class="cls-1" d="M113.4,13.5a2,2,0,0,0-1.8-1,1.6,1.6,0,0,0-1.6,1.6c0,0.9.9,1.3,1.6,1.6l1.7,0.9a1.9,1.9,0,0,1,1,1.7,2.6,2.6,0,0,1-2.7,2.5A2.7,2.7,0,0,1,109,19l0.5-.2a2.2,2.2,0,0,0,2.1,1.6,2.1,2.1,0,0,0,2.1-2c0-1-1-1.4-1.7-1.8l-1.6-.8a1.7,1.7,0,0,1-.9-1.5,2.1,2.1,0,0,1,2.2-2.2,2.4,2.4,0,0,1,2.1,1.2Z" transform="translate(-2.4 -3.3)"/><path class="cls-1" d="M118.1,20.7h-0.5V12.1h0.5v8.6Z" transform="translate(-2.4 -3.3)"/><path class="cls-1" d="M122.4,20.2h2.2v0.5h-2.7V12.1h0.5v8.1Z" transform="translate(-2.4 -3.3)"/><path class="cls-1" d="M129.3,19.5h0l2.6-7.4h0.5L129.3,21l-3.1-8.9h0.5Z" transform="translate(-2.4 -3.3)"/><path class="cls-1" d="M135.1,17.9l-1.2,2.8h-0.6l3.6-8.9,3.6,8.9H140l-1.2-2.8h-3.8Zm1.9-4.7-1.7,4.2h3.4Z" transform="translate(-2.4 -3.3)"/><polygon class="cls-2" points="18.8 12.9 26.8 0.4 32.2 26.2 18.8 12.9"/><polygon class="cls-3" points="0 26.2 5.5 0.4 24.6 21 0 26.2"/><polygon class="cls-4" points="2.1 22.3 5.6 0 24.6 21 2.1 22.3"/><polygon class="cls-5" points="21.2 14.2 26.8 0.4 32.2 26.2 21.2 14.2"/></svg>