<svg id="Layer_1" data-name="Layer 1" xmlns="http://www.w3.org/2000/svg" viewBox="0 0 138.2 26.2"><defs><style>.cls-1{fill:#fff;}.cls-2{fill:#29615e;}.cls-3{fill:#42aaaa;}.cls-4{fill:#4cc3c8;}.cls-5{fill:#307877;}</style></defs><title>logo2</title><path class="cls-1" d="M51.7,12.5h0l-3,7.4-3-7.4h0l-1.5,7.2H43.6l1.9-8.9,3.2,7.9,3.2-7.9,1.9,8.9H53.2Z" transform="translate(-2.4 -2.2)"/><path class="cls-1" d="M65.1,15.3a4.5,4.5,0,1,1-4.5-4.4A4.5,4.5,0,0,1,65.1,15.3Zm-8.4,0a3.9,3.9,0,1,0,3.9-3.9A4,4,0,0,0,56.7,15.3Z" transform="translate(-2.4 -2.2)"/><path class="cls-1" d="M76.2,19.9l-7.3-7.7v7.4H68.3V10.9l7.3,7.7V11h0.5v8.9Z" transform="translate(-2.4 -2.2)"/><path class="cls-1" d="M80.5,19.6H79.9V11h0.5v8.6Z" transform="translate(-2.4 -2.2)"/><path class="cls-1" d="M91.1,12.8a3.9,3.9,0,0,0-2.9-1.4,4,4,0,0,0-3.9,4A3.8,3.8,0,0,0,85.4,18a4.2,4.2,0,0,0,2.8,1.2,4.1,4.1,0,0,0,2.9-1.3v0.8a4.4,4.4,0,1,1-2.9-7.8A4.3,4.3,0,0,1,91.1,12v0.8Z" transform="translate(-2.4 -2.2)"/><path class="cls-1" d="M95.5,16.8l-1.2,2.8H93.8l3.6-8.9,3.6,8.9h-0.6l-1.2-2.8H95.5Zm1.9-4.7-1.7,4.2h3.4Z" transform="translate(-2.4 -2.2)"/><path class="cls-1" d="M113.4,12.4a2,2,0,0,0-1.8-1A1.6,1.6,0,0,0,110,13c0,0.9.9,1.3,1.6,1.6l1.7,0.9a1.9,1.9,0,0,1,1,1.7,2.6,2.6,0,0,1-2.7,2.5,2.7,2.7,0,0,1-2.5-1.9l0.5-.2a2.2,2.2,0,0,0,2.1,1.6,2.1,2.1,0,0,0,2.1-2c0-1-1-1.4-1.7-1.8l-1.6-.8a1.7,1.7,0,0,1-.9-1.5,2.1,2.1,0,0,1,2.2-2.2,2.4,2.4,0,0,1,2.1,1.2Z" transform="translate(-2.4 -2.2)"/><path class="cls-1" d="M118.1,19.6h-0.5V11h0.5v8.6Z" transform="translate(-2.4 -2.2)"/><path class="cls-1" d="M122.4,19.1h2.2v0.5h-2.7V11h0.5v8.1Z" transform="translate(-2.4 -2.2)"/><path class="cls-1" d="M129.3,18.4h0l2.6-7.4h0.5l-3.1,8.9L126.2,11h0.5Z" transform="translate(-2.4 -2.2)"/><path class="cls-1" d="M135.1,16.8l-1.2,2.8h-0.6l3.6-8.9,3.6,8.9H140l-1.2-2.8h-3.8Zm1.9-4.7-1.7,4.2h3.4Z" transform="translate(-2.4 -2.2)"/><polygon class="cls-2" points="18.8 12.9 26.8 0.4 32.2 26.2 18.8 12.9"/><polygon class="cls-3" points="0 26.2 5.5 0.4 24.6 21 0 26.2"/><polygon class="cls-4" points="2.1 22.3 5.6 0 24.6 21 2.1 22.3"/><polygon class="cls-5" points="21.2 14.2 26.8 0.4 32.2 26.2 21.2 14.2"/></svg>